# xmcd
#
# Track frame offsets:
#	150
#	16687
#	31627
#
# Disc length: 673 seconds
#
# Revision: 2
# Processed by: cddbd v1.5.2PL0 Copyright (c) Steve Scherf et al.
# Submitted via: EasyCDDAExtractor 7.0.6.1
#
DISCID=0f029f03
DTITLE=핑클(Finkl) - 도시락회원용
DYEAR=1900
DGENRE=Blues
TTITLE0=핑클(Finkl)
TTITLE1=Butterfly
TTITLE2=I'm Crazy About You
EXTD=
EXTT0=
EXTT1=
EXTT2=
PLAYORDER=
